<?xml version="1.0" encoding="UTF-8"?>
<svg xmlns="http://www.w3.org/2000/svg" width="205" height="39" viewBox="0 0 205 39" fill="none"><rect y="13.6172" width="24.6894" height="24.6894" fill="#007BAF"/><rect x="12.3501" y="1.27344" width="24.6894" height="24.6894" fill="#5BC5F2"/><rect x="12.3501" y="13.6172" width="12.35" height="12.35" fill="#AFCA0B"/><path fill-rule="evenodd" clip-rule="evenodd" d="M60.7987 15.6578H59.2911L57.7085 11.4876H51.2929L49.6676 15.6578H48.2241L53.6988 1.22266H55.3455L60.7987 15.6578ZM51.5816 10.3107H57.3557L54.4687 2.74023L51.5816 10.3107Z" fill="#007BAF"/><path d="M69.9835 15.6567L65.8989 10.0965L64.6371 11.3797V15.6567H63.2471V0.152344H64.6371V9.94683L69.374 4.96404H70.9351L66.8505 9.24111L71.6408 15.6567H69.9835Z" fill="#007BAF"/><path fill-rule="evenodd" clip-rule="evenodd" d="M81.9061 14.9492H82.4193V15.8259C82.0732 15.9351 81.7129 15.9928 81.3501 15.997C80.956 16.0336 80.565 15.9005 80.2751 15.6311C79.9852 15.3616 79.8239 14.9813 79.8317 14.5856C78.8895 15.4852 77.6266 15.9703 76.3245 15.9329C74.1218 15.9329 72.9028 14.8636 72.9028 12.8748C72.9028 10.6079 74.3784 9.51728 77.1799 9.51728H79.7248V8.55494C79.7248 6.7158 78.9977 5.92454 77.1371 5.92454C76.0939 5.93874 75.0576 6.09707 74.0577 6.39502V5.32575C75.1325 4.99791 76.2487 4.82508 77.3724 4.8125C79.9814 4.8125 81.0934 5.88177 81.0934 8.53355V14.0937C81.05 14.3235 81.1197 14.56 81.2807 14.7295C81.4417 14.899 81.6744 14.9807 81.9061 14.9492ZM76.7522 14.8431C77.8359 14.8736 78.8907 14.4914 79.7034 13.7738V10.4805H77.4686C75.3301 10.4805 74.2608 11.1648 74.2608 12.7687C74.2608 14.116 75.1055 14.8431 76.7522 14.8431V14.8431Z" fill="#007BAF"/><path fill-rule="evenodd" clip-rule="evenodd" d="M88.7914 4.83573C89.9925 4.82185 91.1486 5.29202 91.9992 6.14024V0.152344H93.3892V15.6567H92.1061V14.3522C91.1683 15.3361 89.8725 15.8991 88.5134 15.9134C85.8616 15.9134 84.2363 13.8604 84.2363 10.567C84.2042 7.01704 85.9471 4.83573 88.7914 4.83573H88.7914ZM89.0052 14.8007C90.1447 14.7788 91.232 14.3194 92.0419 13.5176L92.0419 7.16613C91.2453 6.37597 90.17 5.9305 89.048 5.92578C86.9736 5.92578 85.6691 7.72215 85.6691 10.5878C85.6691 13.1968 86.9095 14.8007 89.0052 14.8007L89.0052 14.8007Z" fill="#007BAF"/><path fill-rule="evenodd" clip-rule="evenodd" d="M105.152 9.96637V10.6935H97.7845C97.7845 13.4308 99.2387 14.8636 101.741 14.8636C102.815 14.8465 103.872 14.5985 104.842 14.1365L104.842 15.2058C103.791 15.6975 102.645 15.953 101.484 15.9543C98.426 15.9543 96.373 14.0082 96.373 10.3299C96.373 7.05796 98.148 4.8125 101.056 4.8125C103.719 4.83389 105.152 6.77995 105.152 9.96637H105.152ZM97.7845 9.66627H103.879C103.879 7.24972 102.81 5.92383 101.078 5.92383C99.0569 5.92383 97.838 7.48496 97.7845 9.66627H97.7845Z" fill="#007BAF"/><path d="M123.372 8.64253V15.6569H121.982V9.04885C121.982 7.12417 121.062 5.96936 119.309 5.96936C118.179 6.0079 117.11 6.4923 116.336 7.31664C116.434 7.62765 116.477 7.95321 116.464 8.27898V15.6569H115.074V9.04886C115.074 7.03864 114.112 5.96937 112.401 5.96937C111.319 5.9895 110.29 6.44421 109.546 7.2311V15.6569H108.156V4.96425H109.418V6.33291C110.326 5.40971 111.547 4.86033 112.84 4.79316C114.17 4.67997 115.437 5.38101 116.047 6.56814C116.995 5.50793 118.327 4.86917 119.747 4.79316C122.132 4.83593 123.372 6.22598 123.372 8.64252L123.372 8.64253Z" fill="#007BAF"/><path fill-rule="evenodd" clip-rule="evenodd" d="M126.976 2.89099V0.859375H128.366V2.89099H126.976ZM126.976 5.02951H128.366V15.658H126.976V5.02951Z" fill="#007BAF"/><path fill-rule="evenodd" clip-rule="evenodd" d="M140.074 9.96637V10.6935H132.685C132.685 13.4308 134.14 14.8636 136.652 14.8636C137.726 14.8465 138.784 14.5985 139.753 14.1365L139.753 15.2058C138.702 15.6975 137.556 15.953 136.396 15.9543C133.327 15.9543 131.274 14.0082 131.274 10.3299C131.274 7.05796 133.049 4.8125 135.968 4.8125C138.641 4.83389 140.074 6.77995 140.074 9.96637H140.074ZM132.685 9.66627H138.791C138.791 7.24972 137.722 5.92383 135.989 5.92383C133.968 5.92383 132.749 7.48496 132.685 9.66627Z" fill="#007BAF"/><path fill-rule="evenodd" clip-rule="evenodd" d="M152.691 4.83573C153.892 4.82185 155.048 5.29202 155.899 6.14024V0.152344H157.289V15.6567H156.006V14.3522C155.065 15.3377 153.765 15.9008 152.402 15.9133C149.75 15.9133 148.125 13.8604 148.125 10.567C148.104 7.01703 149.836 4.83572 152.691 4.83572L152.691 4.83573ZM152.894 14.8007C154.037 14.7816 155.129 14.3219 155.942 13.5176L155.942 7.16613C155.142 6.37337 154.063 5.9277 152.937 5.92578C150.862 5.92578 149.558 7.72215 149.558 10.5878C149.558 13.1968 150.798 14.8007 152.894 14.8007L152.894 14.8007Z" fill="#007BAF"/><path fill-rule="evenodd" clip-rule="evenodd" d="M169.051 9.96638V10.6935H161.662C161.662 13.4308 163.117 14.8636 165.629 14.8636C166.703 14.8465 167.761 14.5985 168.73 14.1365L168.73 15.2058C167.679 15.6975 166.533 15.953 165.373 15.9543C162.304 15.9543 160.251 14.0082 160.251 10.3299C160.251 7.05796 162.026 4.8125 164.945 4.8125C167.618 4.83389 169.051 6.77995 169.051 9.96637L169.051 9.96638ZM161.662 9.66627H167.768C167.768 7.24972 166.699 5.92383 164.966 5.92383C162.946 5.92383 161.727 7.48496 161.662 9.66627H161.662Z" fill="#007BAF"/><path d="M173.446 7.85089V15.6565H172.056V4.96386H173.318V6.88854C174.21 5.64414 175.608 4.86054 177.135 4.75V6.14005C175.734 6.22514 174.416 6.83616 173.446 7.85089H173.446Z" fill="#007BAF"/><path d="M52.3297 28.6156V38.239H49.1968V23.4297H52.6184L58.4673 32.5185V23.4297H61.5575V38.2604H58.5101L52.3297 28.6156Z" fill="#007BAF"/><path fill-rule="evenodd" clip-rule="evenodd" d="M74.1855 36.4225C74.3315 36.4316 74.4779 36.4316 74.6239 36.4225L74.6239 38.2189C74.0816 38.448 73.5016 38.5748 72.9131 38.5931C71.9705 38.699 71.0925 38.0986 70.8494 37.1817C70.0405 38.1332 68.8354 38.6547 67.5882 38.5931C66.6304 38.7121 65.67 38.3936 64.9732 37.7258C64.2764 37.0581 63.9173 36.1121 63.9954 35.1501C63.9954 32.7336 65.5672 31.397 68.4649 31.397H70.6035V31.0548C70.6035 29.7824 69.9833 29.2584 68.3687 29.2584C67.2898 29.2865 66.2159 29.4154 65.1609 29.6434L65.1609 27.4193C66.3831 27.0746 67.6444 26.8878 68.914 26.8633C72.1967 26.8633 73.5974 28.1143 73.5974 31.0548V35.9734C73.5654 36.2835 73.8113 36.4225 74.1855 36.4225H74.1855ZM68.5719 36.2621C69.2939 36.2794 69.9974 36.0322 70.55 35.5671L70.55 33.1506H69.0958C67.6737 33.1506 66.9573 33.728 66.9573 34.84C67 35.7168 67.4385 36.2621 68.5719 36.2621Z" fill="#007BAF"/><path d="M81.831 36.2217C82.3891 36.2214 82.944 36.1385 83.4777 35.9758V38.2747C82.6616 38.4958 81.8211 38.6143 80.9756 38.6276C78.6981 38.6276 77.4257 37.4835 77.4257 35.0776V29.2822H75.6079V27.1437H77.4684V24H80.4945V27.1116H83.4777V29.2501H80.4517V34.9921C80.4517 35.9758 81.0719 36.2217 81.831 36.2217L81.831 36.2217Z" fill="#007BAF"/><path d="M88.5459 34.2093C88.4937 34.7535 88.6952 35.2914 89.092 35.6674C89.4889 36.0434 90.0369 36.2155 90.5775 36.134C91.3614 36.1305 92.1187 35.8503 92.7161 35.3427L92.716 27.1094H95.7421V38.2618H92.962V36.9253H92.8978C91.9399 37.8878 90.6516 38.4498 89.2944 38.4971C86.6961 38.4971 85.4878 37.1391 85.4878 34.22V27.1094H88.5138L88.5459 34.2093Z" fill="#007BAF"/><path d="M101.655 30.9907V38.2617H98.6289V27.1092H101.409V29.1408H101.473C102.97 27.4193 103.954 26.8633 105.504 26.8633V29.761C104.122 29.7455 102.772 30.1768 101.655 30.9907L101.655 30.9907Z" fill="#007BAF"/><path d="M114.604 31.1603C114.678 30.6269 114.495 30.0901 114.112 29.7115C113.73 29.3329 113.191 29.1566 112.658 29.2356C111.84 29.2188 111.044 29.5044 110.424 30.0376V38.2602H107.408V22.3281H110.434V28.2198C111.413 27.4128 112.622 26.9373 113.888 26.8618C116.497 26.8618 117.641 28.1342 117.641 31.1389V38.2816H114.615L114.604 31.1603Z" fill="#007BAF"/><path fill-rule="evenodd" clip-rule="evenodd" d="M129.637 32.3059V33.5676H122.848C122.848 35.4602 124.056 36.2835 125.938 36.2835C127.088 36.2562 128.221 35.9904 129.263 35.503V37.7805C128.056 38.3107 126.753 38.5873 125.435 38.5932C122.227 38.5932 119.779 36.7754 119.779 32.6908C119.779 29.3654 121.639 26.8633 124.933 26.8633C128.226 26.8633 129.637 29.0339 129.637 32.3059V32.3059ZM122.848 31.5788H126.879C126.879 30.1566 126.269 29.1622 125.018 29.1622C123.596 29.1622 122.89 30.178 122.848 31.5788Z" fill="#007BAF"/><path fill-rule="evenodd" clip-rule="evenodd" d="M132.001 25.3562V22.5547H135.027V25.3562H132.001ZM132.001 27.1094H135.027V38.2618H132.001V27.1094Z" fill="#007BAF"/><path d="M140.887 22.3281V35.4373C140.887 36.111 141.347 36.2393 141.892 36.2393C142.187 36.2364 142.482 36.2005 142.769 36.1324V38.1961C142.075 38.4042 141.355 38.5158 140.63 38.5275C138.684 38.5275 137.893 37.4583 137.893 36.2393V22.3388L140.887 22.3281Z" fill="#007BAF"/><path d="M151.665 38.2602L148.671 33.4806L147.548 34.6461V38.2602H144.522V22.3281H147.548V31.203L151.098 27.0864H154.455L150.595 31.4704L154.958 38.2602L151.665 38.2602Z" fill="#007BAF"/><path d="M159.567 34.2093C159.515 34.7535 159.716 35.2914 160.113 35.6674C160.51 36.0434 161.058 36.2155 161.599 36.134C162.382 36.1305 163.14 35.8503 163.737 35.3427L163.737 27.1094H166.763V38.2618H163.983V36.9253H163.908C162.953 37.8854 161.669 38.4471 160.315 38.4971C157.706 38.4971 156.509 37.1391 156.509 34.22V27.1094H159.535L159.567 34.2093Z" fill="#007BAF"/><path d="M176.91 31.1601C176.984 30.6245 176.8 30.0855 176.415 29.7063C176.03 29.3272 175.488 29.1526 174.953 29.2354C174.136 29.2226 173.341 29.5076 172.718 30.0373V38.26H169.703V27.1075H172.483V28.4869C173.499 27.4506 174.892 26.8716 176.343 26.883C178.749 26.883 179.893 28.3051 179.893 31.1601V38.3028H176.91V31.1601Z" fill="#007BAF"/><path fill-rule="evenodd" clip-rule="evenodd" d="M186.983 26.8618C188.051 26.829 189.087 27.2346 189.848 27.9846H189.848V22.3281H192.949V38.2602H190.169V36.9664C189.275 37.955 188.016 38.5346 186.683 38.5703C183.839 38.5703 182.107 36.4318 182.107 32.7856C182.107 29.1394 183.914 26.8618 186.983 26.8618H186.983ZM187.688 36.2172C188.483 36.2067 189.245 35.9019 189.827 35.3618V30.0155C189.236 29.487 188.481 29.1775 187.688 29.1387C186.17 29.1387 185.186 30.5501 185.186 32.7421C185.186 34.9341 186.085 36.2172 187.688 36.2172Z" fill="#007BAF"/><path fill-rule="evenodd" clip-rule="evenodd" d="M205 32.3059V33.5676H198.21C198.21 35.4602 199.407 36.2835 201.3 36.2835C202.45 36.255 203.583 35.9892 204.626 35.503L204.626 37.7805C203.415 38.3121 202.109 38.5888 200.787 38.5932C197.579 38.5932 195.141 36.7754 195.141 32.6908C195.141 29.3654 197.002 26.8633 200.284 26.8633C203.567 26.8633 205 29.0339 205 32.3059L205 32.3059ZM198.21 31.5788H202.241C202.241 30.1566 201.621 29.1622 200.381 29.1622C198.948 29.1622 198.295 30.178 198.21 31.5788Z" fill="#007BAF"/><rect y="13.6172" width="24.6894" height="24.6894" fill="#007BAF"/><rect x="12.3501" y="1.27344" width="24.6894" height="24.6894" fill="#5BC5F2"/><rect x="12.3501" y="13.6172" width="12.35" height="12.35" fill="#AFCA0B"/><path fill-rule="evenodd" clip-rule="evenodd" d="M60.7987 15.6539H59.2911L57.7085 11.4837H51.2929L49.6676 15.6539H48.2241L53.6988 1.21875H55.3455L60.7987 15.6539ZM51.5816 10.3067H57.3557L54.4687 2.73633L51.5816 10.3067Z" fill="#007BAF"/><path d="M69.9835 15.6567L65.8989 10.0965L64.6371 11.3797V15.6567H63.2471V0.152344H64.6371V9.94683L69.374 4.96404H70.9351L66.8505 9.24111L71.6408 15.6567H69.9835Z" fill="#007BAF"/><path fill-rule="evenodd" clip-rule="evenodd" d="M81.9061 14.9492H82.4193V15.8259C82.0732 15.9351 81.7129 15.9928 81.3501 15.997C80.956 16.0336 80.565 15.9005 80.2751 15.6311C79.9852 15.3616 79.8239 14.9813 79.8317 14.5856C78.8895 15.4852 77.6266 15.9703 76.3245 15.9329C74.1218 15.9329 72.9028 14.8636 72.9028 12.8748C72.9028 10.6079 74.3784 9.51728 77.1799 9.51728H79.7248V8.55494C79.7248 6.7158 78.9977 5.92454 77.1371 5.92454C76.0939 5.93874 75.0576 6.09707 74.0577 6.39502V5.32575C75.1325 4.99791 76.2487 4.82508 77.3724 4.8125C79.9814 4.8125 81.0934 5.88177 81.0934 8.53355V14.0937C81.05 14.3235 81.1197 14.56 81.2807 14.7295C81.4417 14.899 81.6744 14.9807 81.9061 14.9492ZM76.7522 14.8431C77.8359 14.8736 78.8907 14.4914 79.7034 13.7738V10.4805H77.4686C75.3301 10.4805 74.2608 11.1648 74.2608 12.7687C74.2608 14.116 75.1055 14.8431 76.7522 14.8431V14.8431Z" fill="#007BAF"/><path fill-rule="evenodd" clip-rule="evenodd" d="M88.7914 4.83573C89.9925 4.82185 91.1486 5.29202 91.9992 6.14024V0.152344H93.3892V15.6567H92.1061V14.3522C91.1683 15.3361 89.8725 15.8991 88.5134 15.9134C85.8616 15.9134 84.2363 13.8604 84.2363 10.567C84.2042 7.01704 85.9471 4.83573 88.7914 4.83573H88.7914ZM89.0052 14.8007C90.1447 14.7788 91.232 14.3194 92.0419 13.5176L92.0419 7.16613C91.2453 6.37597 90.17 5.9305 89.048 5.92578C86.9736 5.92578 85.6691 7.72215 85.6691 10.5878C85.6691 13.1968 86.9095 14.8007 89.0052 14.8007L89.0052 14.8007Z" fill="#007BAF"/><path fill-rule="evenodd" clip-rule="evenodd" d="M105.152 9.96637V10.6935H97.7845C97.7845 13.4308 99.2387 14.8636 101.741 14.8636C102.815 14.8465 103.872 14.5985 104.842 14.1365L104.842 15.2058C103.791 15.6975 102.645 15.953 101.484 15.9543C98.426 15.9543 96.373 14.0082 96.373 10.3299C96.373 7.05796 98.148 4.8125 101.056 4.8125C103.719 4.83389 105.152 6.77995 105.152 9.96637H105.152ZM97.7845 9.66627H103.879C103.879 7.24972 102.81 5.92383 101.078 5.92383C99.0569 5.92383 97.838 7.48496 97.7845 9.66627H97.7845Z" fill="#007BAF"/><path d="M123.372 8.64253V15.6569H121.982V9.04885C121.982 7.12417 121.062 5.96936 119.309 5.96936C118.179 6.0079 117.11 6.4923 116.336 7.31664C116.434 7.62765 116.477 7.95321 116.464 8.27898V15.6569H115.074V9.04886C115.074 7.03864 114.112 5.96937 112.401 5.96937C111.319 5.9895 110.29 6.44421 109.546 7.2311V15.6569H108.156V4.96425H109.418V6.33291C110.326 5.40971 111.547 4.86033 112.84 4.79316C114.17 4.67997 115.437 5.38101 116.047 6.56814C116.995 5.50793 118.327 4.86917 119.747 4.79316C122.132 4.83593 123.372 6.22598 123.372 8.64252L123.372 8.64253Z" fill="#007BAF"/><path fill-rule="evenodd" clip-rule="evenodd" d="M126.976 2.89099V0.859375H128.366V2.89099H126.976ZM126.976 5.02951H128.366V15.658H126.976V5.02951Z" fill="#007BAF"/><path fill-rule="evenodd" clip-rule="evenodd" d="M140.074 9.96637V10.6935H132.685C132.685 13.4308 134.14 14.8636 136.652 14.8636C137.726 14.8465 138.784 14.5985 139.753 14.1365L139.753 15.2058C138.702 15.6975 137.556 15.953 136.396 15.9543C133.327 15.9543 131.274 14.0082 131.274 10.3299C131.274 7.05796 133.049 4.8125 135.968 4.8125C138.641 4.83389 140.074 6.77995 140.074 9.96637H140.074ZM132.685 9.66627H138.791C138.791 7.24972 137.722 5.92383 135.989 5.92383C133.968 5.92383 132.749 7.48496 132.685 9.66627Z" fill="#007BAF"/><path fill-rule="evenodd" clip-rule="evenodd" d="M152.691 4.83573C153.892 4.82185 155.048 5.29202 155.899 6.14024V0.152344H157.289V15.6567H156.006V14.3522C155.065 15.3377 153.765 15.9008 152.402 15.9133C149.75 15.9133 148.125 13.8604 148.125 10.567C148.104 7.01703 149.836 4.83572 152.691 4.83572L152.691 4.83573ZM152.894 14.8007C154.037 14.7816 155.129 14.3219 155.942 13.5176L155.942 7.16613C155.142 6.37337 154.063 5.9277 152.937 5.92578C150.862 5.92578 149.558 7.72215 149.558 10.5878C149.558 13.1968 150.798 14.8007 152.894 14.8007L152.894 14.8007Z" fill="#007BAF"/><path fill-rule="evenodd" clip-rule="evenodd" d="M169.051 9.96638V10.6935H161.662C161.662 13.4308 163.117 14.8636 165.629 14.8636C166.703 14.8465 167.761 14.5985 168.73 14.1365L168.73 15.2058C167.679 15.6975 166.533 15.953 165.373 15.9543C162.304 15.9543 160.251 14.0082 160.251 10.3299C160.251 7.05796 162.026 4.8125 164.945 4.8125C167.618 4.83389 169.051 6.77995 169.051 9.96637L169.051 9.96638ZM161.662 9.66627H167.768C167.768 7.24972 166.699 5.92383 164.966 5.92383C162.946 5.92383 161.727 7.48496 161.662 9.66627H161.662Z" fill="#007BAF"/><path d="M173.446 7.85089V15.6565H172.056V4.96386H173.318V6.88854C174.21 5.64414 175.608 4.86054 177.135 4.75V6.14005C175.734 6.22514 174.416 6.83616 173.446 7.85089H173.446Z" fill="#007BAF"/><path d="M52.3297 28.6156V38.239H49.1968V23.4297H52.6184L58.4673 32.5185V23.4297H61.5575V38.2604H58.5101L52.3297 28.6156Z" fill="#007BAF"/><path fill-rule="evenodd" clip-rule="evenodd" d="M74.1855 36.4225C74.3315 36.4316 74.4779 36.4316 74.6239 36.4225L74.6239 38.2189C74.0816 38.448 73.5016 38.5748 72.9131 38.5931C71.9705 38.699 71.0925 38.0986 70.8494 37.1817C70.0405 38.1332 68.8354 38.6547 67.5882 38.5931C66.6304 38.7121 65.67 38.3936 64.9732 37.7258C64.2764 37.0581 63.9173 36.1121 63.9954 35.1501C63.9954 32.7336 65.5672 31.397 68.4649 31.397H70.6035V31.0548C70.6035 29.7824 69.9833 29.2584 68.3687 29.2584C67.2898 29.2865 66.2159 29.4154 65.1609 29.6434L65.1609 27.4193C66.3831 27.0746 67.6444 26.8878 68.914 26.8633C72.1967 26.8633 73.5974 28.1143 73.5974 31.0548V35.9734C73.5654 36.2835 73.8113 36.4225 74.1855 36.4225H74.1855ZM68.5719 36.2621C69.2939 36.2794 69.9974 36.0322 70.55 35.5671L70.55 33.1506H69.0958C67.6737 33.1506 66.9573 33.728 66.9573 34.84C67 35.7168 67.4385 36.2621 68.5719 36.2621Z" fill="#007BAF"/><path d="M81.831 36.2217C82.3891 36.2214 82.944 36.1385 83.4777 35.9758V38.2747C82.6616 38.4958 81.8211 38.6143 80.9756 38.6276C78.6981 38.6276 77.4257 37.4835 77.4257 35.0776V29.2822H75.6079V27.1437H77.4684V24H80.4945V27.1116H83.4777V29.2501H80.4517V34.9921C80.4517 35.9758 81.0719 36.2217 81.831 36.2217L81.831 36.2217Z" fill="#007BAF"/><path d="M88.5459 34.2093C88.4937 34.7535 88.6952 35.2914 89.092 35.6674C89.4889 36.0434 90.0369 36.2155 90.5775 36.134C91.3614 36.1305 92.1187 35.8503 92.7161 35.3427L92.716 27.1094H95.7421V38.2618H92.962V36.9253H92.8978C91.9399 37.8878 90.6516 38.4498 89.2944 38.4971C86.6961 38.4971 85.4878 37.1391 85.4878 34.22V27.1094H88.5138L88.5459 34.2093Z" fill="#007BAF"/><path d="M101.655 30.9907V38.2617H98.6289V27.1092H101.409V29.1408H101.473C102.97 27.4193 103.954 26.8633 105.504 26.8633V29.761C104.122 29.7455 102.772 30.1768 101.655 30.9907L101.655 30.9907Z" fill="#007BAF"/><path d="M114.604 31.1603C114.678 30.6269 114.495 30.0901 114.112 29.7115C113.73 29.3329 113.191 29.1566 112.658 29.2356C111.84 29.2188 111.044 29.5044 110.424 30.0376V38.2602H107.408V22.3281H110.434V28.2198C111.413 27.4128 112.622 26.9373 113.888 26.8618C116.497 26.8618 117.641 28.1342 117.641 31.1389V38.2816H114.615L114.604 31.1603Z" fill="#007BAF"/><path fill-rule="evenodd" clip-rule="evenodd" d="M129.637 32.3059V33.5676H122.848C122.848 35.4602 124.056 36.2835 125.938 36.2835C127.088 36.2562 128.221 35.9904 129.263 35.503V37.7805C128.056 38.3107 126.753 38.5873 125.435 38.5932C122.227 38.5932 119.779 36.7754 119.779 32.6908C119.779 29.3654 121.639 26.8633 124.933 26.8633C128.226 26.8633 129.637 29.0339 129.637 32.3059V32.3059ZM122.848 31.5788H126.879C126.879 30.1566 126.269 29.1622 125.018 29.1622C123.596 29.1622 122.89 30.178 122.848 31.5788Z" fill="#007BAF"/><path fill-rule="evenodd" clip-rule="evenodd" d="M132.001 25.3562V22.5547H135.027V25.3562H132.001ZM132.001 27.1094H135.027V38.2618H132.001V27.1094Z" fill="#007BAF"/><path d="M140.887 22.3281V35.4373C140.887 36.111 141.347 36.2393 141.892 36.2393C142.187 36.2364 142.482 36.2005 142.769 36.1324V38.1961C142.075 38.4042 141.355 38.5158 140.63 38.5275C138.684 38.5275 137.893 37.4583 137.893 36.2393V22.3388L140.887 22.3281Z" fill="#007BAF"/><path d="M151.665 38.2602L148.671 33.4806L147.548 34.6461V38.2602H144.522V22.3281H147.548V31.203L151.098 27.0864H154.455L150.595 31.4704L154.958 38.2602L151.665 38.2602Z" fill="#007BAF"/><path d="M159.567 34.2093C159.515 34.7535 159.716 35.2914 160.113 35.6674C160.51 36.0434 161.058 36.2155 161.599 36.134C162.382 36.1305 163.14 35.8503 163.737 35.3427L163.737 27.1094H166.763V38.2618H163.983V36.9253H163.908C162.953 37.8854 161.669 38.4471 160.315 38.4971C157.706 38.4971 156.509 37.1391 156.509 34.22V27.1094H159.535L159.567 34.2093Z" fill="#007BAF"/><path d="M176.91 31.1601C176.984 30.6245 176.8 30.0855 176.415 29.7063C176.03 29.3272 175.488 29.1526 174.953 29.2354C174.136 29.2226 173.341 29.5076 172.718 30.0373V38.26H169.703V27.1075H172.483V28.4869C173.499 27.4506 174.892 26.8716 176.343 26.883C178.749 26.883 179.893 28.3051 179.893 31.1601V38.3028H176.91V31.1601Z" fill="#007BAF"/><path fill-rule="evenodd" clip-rule="evenodd" d="M186.983 26.8618C188.051 26.829 189.087 27.2346 189.848 27.9846H189.848V22.3281H192.949V38.2602H190.169V36.9664C189.275 37.955 188.016 38.5346 186.683 38.5703C183.839 38.5703 182.107 36.4318 182.107 32.7856C182.107 29.1394 183.914 26.8618 186.983 26.8618H186.983ZM187.688 36.2172C188.483 36.2067 189.245 35.9019 189.827 35.3618V30.0155C189.236 29.487 188.481 29.1775 187.688 29.1387C186.17 29.1387 185.186 30.5501 185.186 32.7421C185.186 34.9341 186.085 36.2172 187.688 36.2172Z" fill="#007BAF"/><path fill-rule="evenodd" clip-rule="evenodd" d="M205 32.3059V33.5676H198.21C198.21 35.4602 199.407 36.2835 201.3 36.2835C202.45 36.255 203.583 35.9892 204.626 35.503L204.626 37.7805C203.415 38.3121 202.109 38.5888 200.787 38.5932C197.579 38.5932 195.141 36.7754 195.141 32.6908C195.141 29.3654 197.002 26.8633 200.284 26.8633C203.567 26.8633 205 29.0339 205 32.3059L205 32.3059ZM198.21 31.5788H202.241C202.241 30.1566 201.621 29.1622 200.381 29.1622C198.948 29.1622 198.295 30.178 198.21 31.5788Z" fill="#007BAF"/></svg>